<?xml version="1.0" encoding="UTF-8"?><svg id="a" xmlns="http://www.w3.org/2000/svg" width="45.826mm" height="19.308mm" viewBox="0 0 129.90047 54.73134"><polygon points="110.92403 22.71425 107.01094 22.71425 103.42012 26.36172 103.42012 18.38613 100.18867 18.38613 100.18867 32.27773 103.42012 32.27773 103.42012 28.32754 107.01094 32.27773 110.92403 32.27773 106.31172 27.36367 110.92403 22.71425"/><path d="m48.75874,23.35201c-.6499-.35986-1.40991-.54004-2.27979-.54004-.86011,0-1.59009.18018-2.25.56006-.65015.37012-1.14014.8999-1.49023,1.6001-.33984.70996-.52002,1.5498-.52002,2.5498,0,.93018.16016,1.77002.48022,2.52002.32983.77002.81982,1.37012,1.47998,1.82007.67993.42993,1.5.65991,2.47998.65991,1.26001,0,2.19995-.31982,2.84985-.97998.51001-.53003.90015-1.15991,1.16016-1.90991l-.8501-.47998c-.19995.78003-.56006,1.37988-1.08008,1.84009-.53979.44971-1.23975.68994-2.09985.68994-1.13989,0-2.01001-.38013-2.58008-1.13013-.54004-.69995-.82007-1.59985-.84009-2.70996h7.61011v-.5c0-.93994-.17993-1.75-.54004-2.42993-.35986-.68994-.86987-1.2002-1.53003-1.56006Zm-5.54004,3.62988c.03027-.60986.17017-1.16992.41016-1.62988.28003-.56006.66992-.95996,1.16992-1.25.47998-.28003,1.03003-.41992,1.65015-.41992,1.03003,0,1.83984.31982,2.45996.92993.55005.59009.86987,1.38013.8999,2.36987h-6.59009Z"/><path d="m73.28517,19.52694c-1.06494-.34503-2.28003-.51001-3.6449-.51001h-1.83032v2.64001h1.83032c.95984,0,1.72485.07495,2.29468.22504.55518.14996,1.02026.50995,1.38025,1.09497.375.57001.55481,1.46997.55481,2.68494,0,1.23004-.17981,2.13-.53979,2.70001-.35999.58502-.82507.94501-1.37988,1.09503-.55518.13495-1.33521.20996-2.31006.20996h-1.85999v-5.36346h-3.04504v8.03351h4.90503c1.36487,0,2.57996-.16498,3.6449-.51007,1.04993-.34497,1.92004-1.00494,2.60999-1.97992.67493-.99005,1.0199-2.38501,1.0199-4.18506,0-1.78497-.34497-3.17999-1.0199-4.15491-.68994-.99005-1.56006-1.65009-2.60999-1.98004Z"/><path d="m25.67378,23.4869c-.73499-.45001-1.57507-.67493-2.54993-.67493-.97522,0-1.81531.22491-2.54993.67493-.73535.43506-1.29016,1.03497-1.68018,1.78497-.375.73511-.56982,1.53003-.56982,2.40009,0,.85498.19482,1.64996.56982,2.39996.39001.73499.94482,1.33502,1.68018,1.78497.73462.435,1.57471.66003,2.54993.66003.97485,0,1.81494-.22504,2.54993-.66003.73499-.44995,1.28979-1.04999,1.66479-1.78497.39038-.75.58521-1.54498.58521-2.39996,0-.87006-.19482-1.66498-.58521-2.40009-.375-.75-.92981-1.34991-1.66479-1.78497Zm.79504,6.15002c-.28528.59998-.71997,1.09497-1.29016,1.46997-.58484.375-1.25977.57001-2.05481.57001s-1.48499-.19501-2.05518-.57001c-.56982-.375-1.00488-.87-1.28979-1.46997-.28528-.61505-.43506-1.26001-.43506-1.96497,0-.70508.14978-1.36505.43506-1.96503.28491-.61505.71997-1.09503,1.28979-1.47003.57019-.375,1.26013-.55499,2.05518-.55499s1.46997.17999,2.05481.55499c.57019.375,1.00488.85498,1.29016,1.47003.28491.59998.43506,1.25995.43506,1.96503,0,.70496-.15015,1.34991-.43506,1.96497Z"/><path d="m37.94368,23.41189c-.67493-.40491-1.42493-.59991-2.26501-.59991-1.07996,0-1.97974.26996-2.72974.79492-.69031.49506-1.17004,1.15503-1.46997,1.99506v-2.60999h-1.02026v12.77991h1.02026v-6c.17981.51007.44971.94501.77966,1.33502.40503.45001.88513.81,1.47034,1.05005.56982.23993,1.22974.35999,1.94971.35999.84009,0,1.59009-.19501,2.26501-.60004.66028-.40497,1.18506-.97498,1.56006-1.69495.39001-.73505.57019-1.58997.57019-2.54999s-.18018-1.81506-.57019-2.55005c-.375-.73499-.89978-1.30499-1.56006-1.71002Zm.61487,6.45001c-.32959.60004-.76465,1.04999-1.31982,1.36505-.55518.29999-1.17004.44995-1.82996.44995-.67493,0-1.30481-.16498-1.89001-.46497-.59985-.31506-1.06494-.76501-1.43994-1.36499-.35999-.61505-.54016-1.33502-.54016-2.17499,0-.85504.18018-1.57501.54016-2.17505.375-.61493.84009-1.065,1.43994-1.36493.58521-.30005,1.21509-.45007,1.89001-.45007.65991,0,1.27478.13501,1.82996.43506.55518.28497.99023.73499,1.31982,1.3349.33032.60004.49512,1.35004.49512,2.22009,0,.86993-.16479,1.60498-.49512,2.18994Z"/><path d="m60.05366,23.23189c-.47974-.28497-1.06494-.41992-1.73987-.41992-1.06494,0-1.95007.26996-2.64001.82495-.62988.50995-1.06494,1.20001-1.29016,2.05499v-2.69995h-1.0199v9.34497h1.0199v-4.21503c0-.83997.15015-1.58997.43506-2.26501.28528-.67499.70496-1.19995,1.26013-1.58997.53979-.39001,1.17004-.58502,1.89001-.58502.86975,0,1.51501.21002,1.92004.65997.41968.43506.61487,1.15503.61487,2.14502v5.85004h1.03491v-5.89502c0-.76501-.11975-1.42499-.375-1.96497-.2699-.53998-.62988-.96002-1.10999-1.24506Z"/><path d="m85.85536,23.18697c-.75-.375-1.66516-.57001-2.70007-.57001-.97522,0-1.82996.19501-2.57996.5849-.75.39001-1.33521.96002-1.77026,1.71002-.42004.73499-.62988,1.60504-.62988,2.60999,0,.97504.20984,1.84509.61487,2.59509.42004.76501,1.00525,1.34991,1.7699,1.76996.76538.41998,1.68018.63,2.71509.63,1.43994,0,2.59497-.31506,3.45007-.96002.46509-.35999.84009-.77997,1.09497-1.25995l-2.36975-1.32001h-.07507c-.09009.43494-.32996.78003-.70496,1.01996-.375.23999-.84009.35999-1.41028.35999-.68994,0-1.22974-.22491-1.61975-.65997-.33032-.375-.52515-.88495-.55518-1.51501h7.125v-.79498c0-1.00494-.19482-1.85999-.59985-2.565-.40503-.70496-.99023-1.25995-1.75488-1.63495Zm-4.81531,3.43494c.03003-.33002.13513-.62994.2699-.88501.18018-.32996.43506-.57001.75-.75.33032-.16498.70532-.255,1.17041-.255.67493,0,1.21472.19501,1.60474.57001.34497.33008.52515.76501.57019,1.32001h-4.36523Z"/><path d="m95.82881,26.81692l-2.20496-.55499c-.34497-.08997-.60022-.19501-.76501-.34503-.18018-.14996-.25488-.31494-.25488-.49493,0-.24005.10474-.42004.32959-.55499.22522-.12006.57019-.17999,1.00525-.17999.58484,0,1.0199.10492,1.30481.32996.28528.22504.43506.57001.43506,1.01996h2.87988c0-1.10999-.41968-1.94995-1.22974-2.53497s-1.95007-.88495-3.40503-.88495c-.88513,0-1.63513.10498-2.26501.32996-.62988.21002-1.125.52502-1.45496.92999-.32996.40503-.49512.91498-.49512,1.51501,0,.75.22485,1.33502.68994,1.74005.4801.41992,1.03491.71997,1.66516.91498l2.90991.76501c.29993.08997.51013.2099.6449.34497.13513.12.21021.28497.21021.47998,0,.28503-.1051.49506-.32996.63-.22522.13501-.60022.19501-1.125.19501-.70496,0-1.2301-.12006-1.57507-.39001-.34497-.255-.52515-.66003-.52515-1.20001h-2.86487c0,.79498.17981,1.46997.55481,2.01007.39038.53998.93018.94489,1.66516,1.22992.71997.27008,1.62012.40503,2.70007.40503.97485,0,1.78491-.10504,2.42981-.31506.66028-.2099,1.14001-.53998,1.47034-.9599.32959-.43506.49475-.96002.49475-1.57507,0-.81-.25488-1.42493-.78003-1.875-.51013-.435-1.21472-.76495-2.11487-.97498Z"/></svg>