<?xml version="1.0" encoding="UTF-8"?><svg id="a" xmlns="http://www.w3.org/2000/svg" viewBox="1.148 1.245 92.6 17.386" width="92.6" height="17.386"><polygon points="93.748 5.573 89.835 5.573 86.244 9.221 86.244 1.245 83.013 1.245 83.013 15.137 86.244 15.137 86.244 11.187 89.835 15.137 93.748 15.137 89.136 10.223 93.748 5.573" fill="#ffffff"></polygon><path d="M 31.583 6.211 C 30.933 5.851 30.173 5.671 29.303 5.671 C 28.443 5.671 27.713 5.851 27.053 6.231 C 26.403 6.601 25.913 7.131 25.563 7.831 C 25.223 8.541 25.043 9.381 25.043 10.381 C 25.043 11.311 25.203 12.151 25.523 12.901 C 25.853 13.671 26.343 14.271 27.003 14.721 C 27.683 15.151 28.503 15.381 29.483 15.381 C 30.743 15.381 31.683 15.061 32.333 14.401 C 32.843 13.871 33.233 13.241 33.493 12.491 L 32.643 12.011 C 32.443 12.791 32.083 13.391 31.563 13.851 C 31.023 14.301 30.323 14.541 29.463 14.541 C 28.323 14.541 27.453 14.161 26.883 13.411 C 26.343 12.711 26.063 11.811 26.043 10.701 L 33.653 10.701 L 33.653 10.201 C 33.653 9.261 33.473 8.451 33.113 7.771 C 32.753 7.081 32.243 6.571 31.583 6.211 Z M 26.043 9.841 C 26.073 9.231 26.213 8.671 26.453 8.211 C 26.733 7.651 27.123 7.251 27.623 6.961 C 28.103 6.681 28.653 6.541 29.273 6.541 C 30.303 6.541 31.113 6.861 31.733 7.471 C 32.283 8.061 32.603 8.851 32.633 9.841 L 26.043 9.841 Z" fill="#ffffff"></path> <path d="M 56.109 2.386 C 55.044 2.041 53.829 1.876 52.464 1.876 L 50.634 1.876 L 50.634 4.516 L 52.464 4.516 C 53.424 4.516 54.189 4.591 54.759 4.741 C 55.314 4.891 55.779 5.251 56.139 5.836 C 56.514 6.406 56.694 7.306 56.694 8.521 C 56.694 9.751 56.514 10.651 56.154 11.221 C 55.794 11.806 55.329 12.166 54.774 12.316 C 54.219 12.451 53.439 12.526 52.464 12.526 L 50.604 12.526 L 50.604 7.162 L 47.559 7.162 L 47.559 15.196 L 52.464 15.196 C 53.829 15.196 55.044 15.031 56.109 14.686 C 57.159 14.341 58.029 13.681 58.719 12.706 C 59.394 11.716 59.739 10.321 59.739 8.521 C 59.739 6.736 59.394 5.341 58.719 4.366 C 58.029 3.376 57.159 2.716 56.109 2.386 Z" fill="#ffffff"></path><path d="M 8.498 6.346 C 7.763 5.896 6.923 5.671 5.948 5.671 C 4.973 5.671 4.133 5.896 3.398 6.346 C 2.663 6.781 2.108 7.381 1.718 8.131 C 1.343 8.866 1.148 9.661 1.148 10.531 C 1.148 11.386 1.343 12.181 1.718 12.931 C 2.108 13.666 2.663 14.266 3.398 14.716 C 4.133 15.151 4.973 15.376 5.948 15.376 C 6.923 15.376 7.763 15.151 8.498 14.716 C 9.233 14.266 9.788 13.666 10.163 12.931 C 10.553 12.181 10.748 11.386 10.748 10.531 C 10.748 9.661 10.553 8.866 10.163 8.131 C 9.788 7.381 9.233 6.781 8.498 6.346 Z M 9.293 12.496 C 9.008 13.096 8.573 13.591 8.003 13.966 C 7.418 14.341 6.743 14.536 5.948 14.536 C 5.153 14.536 4.463 14.341 3.893 13.966 C 3.323 13.591 2.888 13.096 2.603 12.496 C 2.318 11.881 2.168 11.236 2.168 10.531 C 2.168 9.826 2.318 9.166 2.603 8.566 C 2.888 7.951 3.323 7.471 3.893 7.096 C 4.463 6.721 5.153 6.541 5.948 6.541 C 6.743 6.541 7.418 6.721 8.003 7.096 C 8.573 7.471 9.008 7.951 9.293 8.566 C 9.578 9.166 9.728 9.826 9.728 10.531 C 9.728 11.236 9.578 11.881 9.293 12.496 Z" fill="#ffffff"></path><path d="M 20.768 6.271 C 20.093 5.866 19.343 5.671 18.503 5.671 C 17.423 5.671 16.523 5.941 15.773 6.466 C 15.083 6.961 14.603 7.621 14.303 8.461 L 14.303 5.851 L 13.283 5.851 L 13.283 18.631 L 14.303 18.631 L 14.303 12.631 C 14.483 13.141 14.753 13.576 15.083 13.966 C 15.488 14.416 15.968 14.776 16.553 15.016 C 17.123 15.256 17.783 15.376 18.503 15.376 C 19.343 15.376 20.093 15.181 20.768 14.776 C 21.428 14.371 21.953 13.801 22.328 13.081 C 22.718 12.346 22.898 11.491 22.898 10.531 C 22.898 9.571 22.718 8.716 22.328 7.981 C 21.953 7.246 21.428 6.676 20.768 6.271 Z M 21.383 12.721 C 21.053 13.321 20.618 13.771 20.063 14.086 C 19.508 14.386 18.893 14.536 18.233 14.536 C 17.558 14.536 16.928 14.371 16.343 14.071 C 15.743 13.756 15.278 13.306 14.903 12.706 C 14.543 12.091 14.363 11.371 14.363 10.531 C 14.363 9.676 14.543 8.956 14.903 8.356 C 15.278 7.741 15.743 7.291 16.343 6.991 C 16.928 6.691 17.558 6.541 18.233 6.541 C 18.893 6.541 19.508 6.676 20.063 6.976 C 20.618 7.261 21.053 7.711 21.383 8.311 C 21.713 8.911 21.878 9.661 21.878 10.531 C 21.878 11.401 21.713 12.136 21.383 12.721 Z" fill="#ffffff"></path><path d="M 42.878 6.091 C 42.398 5.806 41.813 5.671 41.138 5.671 C 40.073 5.671 39.188 5.941 38.498 6.496 C 37.868 7.006 37.433 7.696 37.208 8.551 L 37.208 5.851 L 36.188 5.851 L 36.188 15.196 L 37.208 15.196 L 37.208 10.981 C 37.208 10.141 37.358 9.391 37.643 8.716 C 37.928 8.041 38.348 7.516 38.903 7.126 C 39.443 6.736 40.073 6.541 40.793 6.541 C 41.663 6.541 42.308 6.751 42.713 7.201 C 43.133 7.636 43.328 8.356 43.328 9.346 L 43.328 15.196 L 44.363 15.196 L 44.363 9.301 C 44.363 8.536 44.243 7.876 43.988 7.336 C 43.718 6.796 43.358 6.376 42.878 6.091 Z" fill="#ffffff"></path><path d="M 68.679 6.046 C 67.929 5.671 67.014 5.476 65.979 5.476 C 65.004 5.476 64.149 5.671 63.399 6.061 C 62.649 6.451 62.064 7.021 61.629 7.771 C 61.209 8.506 60.999 9.376 60.999 10.381 C 60.999 11.356 61.209 12.226 61.614 12.976 C 62.034 13.741 62.619 14.326 63.384 14.746 C 64.149 15.166 65.064 15.376 66.099 15.376 C 67.539 15.376 68.694 15.061 69.549 14.416 C 70.014 14.056 70.389 13.636 70.644 13.156 L 68.274 11.836 L 68.199 11.836 C 68.109 12.271 67.869 12.616 67.494 12.856 C 67.119 13.096 66.654 13.216 66.084 13.216 C 65.394 13.216 64.854 12.991 64.464 12.556 C 64.134 12.181 63.939 11.671 63.909 11.041 L 71.034 11.041 L 71.034 10.246 C 71.034 9.241 70.839 8.386 70.434 7.681 C 70.029 6.976 69.444 6.421 68.679 6.046 Z M 63.864 9.481 C 63.894 9.151 63.999 8.851 64.134 8.596 C 64.314 8.266 64.569 8.026 64.884 7.846 C 65.214 7.681 65.589 7.591 66.054 7.591 C 66.729 7.591 67.269 7.786 67.659 8.161 C 68.004 8.491 68.184 8.926 68.229 9.481 L 63.864 9.481 Z" fill="#ffffff"></path><path d="M 78.653 9.676 L 76.448 9.121 C 76.103 9.031 75.848 8.926 75.683 8.776 C 75.503 8.626 75.428 8.461 75.428 8.281 C 75.428 8.041 75.533 7.861 75.758 7.726 C 75.983 7.606 76.328 7.546 76.763 7.546 C 77.348 7.546 77.783 7.651 78.068 7.876 C 78.353 8.101 78.503 8.446 78.503 8.896 L 81.383 8.896 C 81.383 7.786 80.963 6.946 80.153 6.361 C 79.343 5.776 78.203 5.476 76.748 5.476 C 75.863 5.476 75.113 5.581 74.483 5.806 C 73.853 6.016 73.358 6.331 73.028 6.736 C 72.698 7.141 72.533 7.651 72.533 8.251 C 72.533 9.001 72.758 9.586 73.223 9.991 C 73.703 10.411 74.258 10.711 74.888 10.906 L 77.798 11.671 C 78.098 11.761 78.308 11.881 78.443 12.016 C 78.578 12.136 78.653 12.301 78.653 12.496 C 78.653 12.781 78.548 12.991 78.323 13.126 C 78.098 13.261 77.723 13.321 77.198 13.321 C 76.493 13.321 75.968 13.201 75.623 12.931 C 75.278 12.676 75.098 12.271 75.098 11.731 L 72.233 11.731 C 72.233 12.526 72.413 13.201 72.788 13.741 C 73.178 14.281 73.718 14.686 74.453 14.971 C 75.173 15.241 76.073 15.376 77.153 15.376 C 78.128 15.376 78.938 15.271 79.583 15.061 C 80.243 14.851 80.723 14.521 81.053 14.101 C 81.383 13.666 81.548 13.141 81.548 12.526 C 81.548 11.716 81.293 11.101 80.768 10.651 C 80.258 10.216 79.553 9.886 78.653 9.676 Z" fill="#ffffff"></path></svg>