<svg xmlns="http://www.w3.org/2000/svg" height="48" viewBox="0 96 960 960" width="48"><path d="M80 466V276q0-24 18-42t42-18h680q24 0 42 18t18 42v190h-60V276H140v190H80Zm60 350q-24 0-42-18t-18-42V526h60v230h680V526h60v230q0 24-18 42t-42 18H140ZM40 936v-60h880v60H40Zm440-420ZM80 526v-60h240q8.161 0 15.581 4Q343 474 347 482l55 112 131-231q4-8 11.5-11.5t15.619-3.5q8.119 0 15.5 3.5T587 363l50.553 103H880v60H619q-8.25 0-15.75-4T592 510l-34-69-131 229q-3.723 8-11.17 12t-15.639 4q-8.191 0-15.691-4T373 670l-72-144H80Z" fill="#004B76"/></svg>