<svg xmlns="http://www.w3.org/2000/svg" height="40" viewBox="0 -960 960 960" width="40"><path d="M153.333-120q-27 0-46.833-19.833t-19.833-46.833v-586.668q0-27 19.833-46.833T153.333-840h586.668q26.999 0 46.833 19.833 19.833 19.833 19.833 46.833v66.667h66.666v66.666h-66.666v126.668h66.666v66.666h-66.666v126.668h66.666v66.666h-66.666v66.667q0 27-19.833 46.833Q767-120 740.001-120H153.333Zm0-66.666h586.668v-586.668H153.333v586.668Zm66.666-66.667h235.335V-440H219.999v186.667Zm268.668-317.334h184.667v-136H488.667v136Zm-268.668 97.334h235.335v-233.334H219.999v233.334Zm268.668 220h184.667v-284.001H488.667v284.001ZM153.333-773.334v586.668-586.668Z" fill="#5e27dd"/></svg>